<svg width="22" height="23" viewBox="0 0 22 23" fill="none" xmlns="http://www.w3.org/2000/svg">
<path fill-rule="evenodd" clip-rule="evenodd" d="M11 6.35247C12.6222 3.40908 16.6423 3.06557 18.6826 5.81478L18.9662 6.19689C20.6917 8.52198 20.4426 11.8377 18.3909 13.8526L12.0016 20.1275C11.9061 20.2213 11.8018 20.3239 11.7033 20.4031C11.5902 20.4943 11.4319 20.5997 11.2207 20.6431C11.0749 20.673 10.9251 20.673 10.7793 20.6431C10.5681 20.5997 10.4099 20.4943 10.2967 20.4031C10.1983 20.3239 10.094 20.2214 9.9985 20.1276L3.60907 13.8526C1.55745 11.8377 1.30831 8.52198 3.03383 6.19689L3.3174 5.81478C5.35767 3.06557 9.37778 3.40908 11 6.35247ZM14.6743 10.591C14.9535 10.322 14.9712 9.86729 14.7139 9.5754C14.4565 9.28351 14.0216 9.26496 13.7424 9.53398L10.204 12.9433L8.726 11.4606C8.45203 11.1857 8.01682 11.1951 7.75393 11.4815C7.49104 11.768 7.50002 12.2229 7.77399 12.4978L9.71853 14.4485C9.98068 14.7115 10.3933 14.7158 10.6605 14.4584L14.6743 10.591Z" fill="url(#paint0_linear_19_803)"/>
<defs>
<linearGradient id="paint0_linear_19_803" x1="11" y1="3.93614" x2="11" y2="20.6655" gradientUnits="userSpaceOnUse">
<stop stop-color="#0098EE"/>
<stop offset="1" stop-color="#01E5BB"/>
</linearGradient>
</defs>
</svg>
