<svg width="117" height="51" viewBox="0 0 117 51" fill="none" xmlns="http://www.w3.org/2000/svg">
<path d="M25.6088 48.3787C25.2506 48.3937 24.8923 48.4006 24.5342 48.3996C21.921 48.3922 19.3175 47.9612 16.8307 47.1263C14.3729 46.301 12.0315 45.0824 9.9101 43.4895C7.8622 41.9517 6.01766 40.0655 4.46941 37.848C0.596314 32.3008 -0.69578 25.7231 0.346142 19.5729C1.39001 13.4113 4.77533 7.67976 10.2547 3.83812L10.2587 3.8353C11.9101 2.67797 13.6486 1.73807 15.4842 1.08138C17.3241 0.423129 19.2579 0.050847 21.2946 0.0309771L21.3034 0.0309947C24.1499 -0.121324 27.0172 0.28925 29.7377 1.23C29.928 1.29633 30.0142 1.50511 29.93 1.69629C29.8459 1.88748 29.6234 1.9887 29.433 1.92237C26.801 1.01222 24.0291 0.615025 21.2796 0.762509C21.2649 0.76412 21.2506 0.76471 21.2358 0.764885C20.7053 0.794453 20.1757 0.844194 19.6482 0.914572C16.5011 1.33441 13.4243 2.48623 10.6662 4.41907L10.6618 4.42224C5.90737 7.75603 3.00308 12.7841 2.15085 18.2189C1.29569 23.6725 2.50474 29.5348 5.98066 34.5132C7.59579 36.8265 9.55753 38.7445 11.7374 40.242C14.0002 41.7964 16.4963 42.8976 19.082 43.5175C21.6884 44.1423 24.406 44.281 27.059 43.8947C27.4076 43.9059 27.6345 44.4359 27.3131 44.5884C21.7023 45.4571 15.9488 44.0678 11.2683 40.8526C9.02421 39.311 7.00552 37.3377 5.34466 34.959C1.76641 29.834 0.522793 23.7925 1.40479 18.1679C1.41858 18.08 1.43288 17.9922 1.44769 17.9045C1.30653 18.4761 1.18635 19.0529 1.08794 19.6338C0.0759198 25.6074 1.33513 32.0023 5.10542 37.4023C6.61435 39.5635 8.41014 41.4004 10.4025 42.8965C12.4679 44.4473 14.743 45.6322 17.1273 46.4328C19.8555 47.3488 22.7176 47.7587 25.5631 47.6491C26.24 47.623 26.4854 48.342 25.6088 48.3787ZM32.9819 49.0009C33.1057 48.9534 33.2377 49.0097 33.2766 49.1266C33.3154 49.2435 33.2465 49.3769 33.1226 49.4244C31.4343 50.0693 29.6934 50.5137 27.9337 50.7622C26.1472 51.0145 24.3398 51.065 22.547 50.9186C22.419 50.9081 22.3326 50.7976 22.3539 50.6719C22.3753 50.5461 22.4964 50.4527 22.6245 50.4632C24.3805 50.6066 26.152 50.5569 27.9043 50.3094C29.6277 50.0661 31.3312 49.6314 32.9819 49.0009ZM2.35656 38.3095C2.05709 38.5194 1.70234 38.5879 1.37087 38.529C1.05102 38.4722 0.754595 38.2959 0.557488 38.0135C0.360376 37.7312 0.296713 37.3918 0.353118 37.0713C0.41156 36.7392 0.597462 36.4288 0.896935 36.2189C1.1964 36.009 1.55118 35.9405 1.88262 35.9994C2.20249 36.0562 2.49889 36.2325 2.696 36.5148C2.89311 36.7972 2.95679 37.1366 2.90038 37.4571C2.84193 37.7892 2.65604 38.0996 2.35656 38.3095ZM1.56409 37.8094C1.69491 37.8327 1.83355 37.8066 1.94898 37.7257C2.06441 37.6448 2.1364 37.5233 2.15946 37.3922C2.18457 37.2495 2.15341 37.0943 2.06001 36.9606C1.9666 36.8268 1.8318 36.7442 1.6894 36.7189C1.5586 36.6957 1.41994 36.7218 1.30452 36.8027C1.18909 36.8836 1.1171 37.0051 1.09403 37.1362C1.06892 37.2789 1.10008 37.4341 1.19348 37.5678C1.28689 37.7016 1.42169 37.7841 1.56409 37.8094ZM15.4988 48.4876C15.6181 48.5277 15.6733 48.6572 15.6221 48.7768C15.5709 48.8965 15.4327 48.9611 15.3135 48.921C12.8694 48.1004 10.5404 46.8881 8.42956 45.3031C6.39208 43.7731 4.55667 41.8962 3.01579 39.6892C2.94544 39.5885 2.97741 39.4444 3.08717 39.3675C3.19694 39.2906 3.34294 39.3099 3.41329 39.4107C4.92959 41.5824 6.73454 43.4285 8.73734 44.9324C10.8132 46.4912 13.1007 47.6824 15.4988 48.4876ZM18.4568 41.254C18.6939 41.3108 18.9325 41.3642 19.1721 41.4131L19.3851 40.6939C19.1533 40.6462 18.9228 40.5949 18.6934 40.54L18.4568 41.254ZM21.4119 41.7556C21.6641 41.7807 21.9161 41.8019 22.1697 41.819L22.2823 41.0862C22.0374 41.0699 21.7938 41.0492 21.5503 41.025L21.4119 41.7556ZM24.465 41.8504C24.7212 41.8403 24.9776 41.826 25.234 41.8067L25.2374 41.0745C24.9902 41.093 24.7432 41.1069 24.4962 41.1166L24.465 41.8504ZM13.7611 38.5759C13.3851 38.5077 13.1224 38.2201 13.0016 37.8104C12.9006 37.4676 12.899 37.0284 13.0203 36.5722L13.0201 36.5721L13.0249 36.5552C13.1508 36.0927 13.3827 35.6886 13.6558 35.4093C13.9777 35.0801 14.3645 34.9106 14.7399 34.9788C15.1159 35.047 15.3786 35.3346 15.4993 35.7443C15.6004 36.0871 15.6019 36.5263 15.4807 36.9825L15.4809 36.9826L15.4761 36.9996C15.3501 37.4621 15.1182 37.8661 14.8451 38.1454C14.5282 38.4695 14.1483 38.6389 13.7783 38.5789L13.7782 38.5792L13.7611 38.5759ZM13.7272 37.5566C13.7591 37.6647 13.8304 37.8323 13.9568 37.8546C14.0572 37.8729 14.1888 37.7987 14.3204 37.6641C14.4977 37.4827 14.6522 37.2092 14.7432 36.885C14.821 36.6104 14.8556 36.2758 14.7737 35.9981C14.7244 35.8307 14.644 35.7182 14.5442 35.7C14.4438 35.6818 14.3122 35.756 14.1806 35.8906C14.0032 36.072 13.8488 36.3455 13.7578 36.6697C13.6799 36.9443 13.6454 37.279 13.7272 37.5566ZM39.0043 5.77616C38.9081 5.69878 38.9013 5.55482 38.9891 5.45463C39.0768 5.35445 39.226 5.33594 39.3221 5.41332C41.0422 6.79721 42.5606 8.43094 43.8249 10.2417C43.8952 10.3425 43.8632 10.4865 43.7535 10.5634C43.6437 10.6404 43.4977 10.6211 43.4274 10.5203C42.7921 9.61047 42.1063 8.76407 41.3775 7.98247C40.6327 7.18362 39.8388 6.44761 39.0043 5.77616ZM36.1179 3.75402C35.766 4.20019 35.2158 4.42731 34.6107 4.43379C34.0529 4.43975 33.4417 4.25429 32.9093 3.87601C32.3789 3.49914 32.0202 2.99509 31.8689 2.48482C31.7048 1.93106 31.7792 1.36536 32.1313 0.91903C32.4832 0.472847 33.0335 0.245739 33.6385 0.239271C34.1963 0.233299 34.8075 0.418756 35.3399 0.797039L35.3886 0.832378C35.8923 1.2051 36.2337 1.69375 36.3803 2.18823C36.5445 2.74199 36.47 3.30769 36.1179 3.75402ZM34.6644 3.69994C35.0286 3.69604 35.3475 3.57489 35.5348 3.33744C35.722 3.10015 35.7547 2.77619 35.6563 2.4443C35.545 2.06891 35.2715 1.69123 34.862 1.40028L34.8615 1.39989C34.4541 1.11064 33.9961 0.968701 33.5848 0.973116C33.2206 0.977008 32.9017 1.09817 32.7144 1.33561C32.5273 1.57291 32.4945 1.89687 32.5929 2.22875C32.7042 2.60414 32.9778 2.98182 33.3872 3.27277C33.7947 3.56229 34.2529 3.70435 34.6644 3.69994ZM45.2771 15.3735C44.9494 15.6032 44.5368 15.6169 44.1347 15.4533C43.7944 15.315 43.4536 15.0426 43.1928 14.669C42.932 14.2955 42.7934 13.8813 42.7804 13.5136C42.7649 13.0791 42.9193 12.6955 43.247 12.4659C43.5747 12.2362 43.9873 12.2225 44.3894 12.386C44.7296 12.5244 45.0705 12.7968 45.3313 13.1703C45.5921 13.5439 45.7306 13.9581 45.7437 14.3257C45.7591 14.7602 45.6048 15.1438 45.2771 15.3735ZM44.4743 14.7738C44.6376 14.8403 44.7823 14.8508 44.8695 14.7897C44.9567 14.7286 44.9964 14.5889 44.9901 14.4123C44.9815 14.1689 44.8825 13.8842 44.6953 13.6161C44.5081 13.3479 44.2751 13.1571 44.0498 13.0655C43.8864 12.9991 43.7417 12.9885 43.6546 13.0496C43.5674 13.1107 43.5277 13.2505 43.5339 13.4271C43.5426 13.6705 43.6415 13.9552 43.8288 14.2233C44.016 14.4915 44.249 14.6822 44.4743 14.7738ZM40.0616 13.8841C39.7622 14.094 39.4074 14.1625 39.076 14.1036C38.7561 14.0468 38.4597 13.8705 38.2626 13.5882C38.0655 13.3058 38.0018 12.9664 38.0582 12.6459C38.1167 12.3138 38.3026 12.0034 38.602 11.7935C38.9015 11.5836 39.2563 11.5151 39.5877 11.574C39.9076 11.6308 40.204 11.8071 40.4011 12.0895C40.5982 12.3718 40.6619 12.7112 40.6055 13.0317C40.547 13.3638 40.3611 13.6742 40.0616 13.8841ZM39.2692 13.3841C39.4 13.4073 39.5386 13.3812 39.6541 13.3003C39.7695 13.2194 39.8415 13.0979 39.8646 12.9668C39.8897 12.8241 39.8585 12.6689 39.7651 12.5352C39.6717 12.4014 39.5369 12.3189 39.3945 12.2936C39.2637 12.2703 39.125 12.2964 39.0096 12.3773C38.8942 12.4582 38.8222 12.5797 38.7991 12.7108C38.774 12.8535 38.8052 13.0087 38.8986 13.1424C38.992 13.2762 39.1268 13.3588 39.2692 13.3841ZM30.3985 5.54871C30.5266 5.38588 30.5262 5.16852 30.4697 4.97793C30.3928 4.71865 30.2022 4.45656 29.9159 4.25317C29.6316 4.05117 29.3136 3.95206 29.0292 3.9551C28.7921 3.95764 28.5871 4.03314 28.4705 4.18095L28.4703 4.18121C28.354 4.32887 28.3354 4.53609 28.3993 4.75175C28.4762 5.01102 28.6669 5.27311 28.9531 5.4765C29.2374 5.67851 29.5554 5.77763 29.8398 5.77458C30.0769 5.77204 30.2819 5.69655 30.3985 5.54871ZM30.9376 6.01824C30.656 6.33979 30.2398 6.50357 29.7861 6.50843C29.3617 6.51297 28.8982 6.37465 28.4932 6.09247L28.4423 6.06713L28.4261 6.04388C28.0458 5.75874 27.7874 5.3859 27.6753 5.00782C27.5456 4.57017 27.606 4.12109 27.8874 3.76438L27.9314 3.71143C28.2131 3.38988 28.6292 3.22611 29.0829 3.22125C29.5136 3.21665 29.9846 3.35916 30.3938 3.6499C30.801 3.93922 31.0769 4.32772 31.1937 4.72186C31.3235 5.1595 31.263 5.60857 30.9817 5.96528L30.9376 6.01824ZM19.2253 39.0021C19.418 39.063 19.5104 39.2689 19.4317 39.462C19.3529 39.655 19.1328 39.7621 18.9401 39.7012C18.6077 39.5971 18.2518 39.4712 17.8774 39.3242C17.5233 39.1852 17.1483 39.0247 16.7565 38.8432C16.5753 38.7592 16.5107 38.5422 16.6123 38.3585C16.7139 38.1747 16.9432 38.0938 17.1244 38.1778C17.4922 38.3482 17.8548 38.503 18.2073 38.6414C18.5625 38.7809 18.9034 38.9013 19.2253 39.0021ZM11.4567 34.4839C11.6039 34.6142 11.6044 34.845 11.4578 34.9994C11.3111 35.1537 11.0729 35.1732 10.9257 35.0428C9.83338 34.0769 8.83035 32.998 7.99436 31.8007C7.15208 30.5943 6.59072 29.4341 6.26383 28.3398C6.16666 28.0145 6.09042 27.6952 6.0338 27.3823C6.27059 27.4651 6.54506 27.4493 6.79358 27.2969C6.84354 27.5542 6.90803 27.8165 6.98784 28.0837C7.29358 29.1072 7.826 30.2029 8.63037 31.355C9.02241 31.9165 9.45186 32.4504 9.90857 32.9557C10.4003 33.4999 10.9203 34.0095 11.4567 34.4839ZM9.3247 20.2519C9.34576 20.2403 9.36688 20.2288 9.38808 20.2174C9.39338 20.2373 9.40054 20.2597 9.40734 20.2816C9.38033 20.2704 9.35277 20.2605 9.3247 20.2519ZM4.83304 16.2542C5.27721 14.2323 6.04703 12.2915 7.12899 10.519C8.40106 8.43501 10.1035 6.58295 12.2141 5.10377C13.7153 4.05175 15.326 3.25814 16.9952 2.71318C18.7168 2.1511 20.4975 1.85615 22.2814 1.81731C22.4886 1.81273 22.6467 1.97264 22.6343 2.17447C22.622 2.3763 22.4439 2.54365 22.2367 2.54824C20.5296 2.5854 18.8267 2.86725 17.1817 3.40431C15.5952 3.92229 14.0592 4.68015 12.6217 5.68753C10.6081 7.09873 8.9838 8.8658 7.77007 10.8542C6.72312 12.5694 5.98088 14.4487 5.55682 16.4064C5.5053 16.3914 5.46939 16.3865 5.45521 16.3806C5.43643 16.3729 5.37081 16.3294 5.29822 16.3015C5.15022 16.2447 4.98941 16.2286 4.83304 16.2542ZM8.77402 18.4206C8.86666 18.3832 8.95919 18.3455 9.05173 18.3079C9.05527 18.342 9.05277 18.3746 9.05091 18.4127C9.00128 18.4124 8.95361 18.4141 8.91499 18.4194L8.77402 18.4206ZM36.0903 5.61016C35.9365 5.48636 35.9255 5.25602 36.066 5.09572C36.2064 4.93541 36.445 4.9058 36.5989 5.0296C38.3264 6.41949 39.8557 8.06467 41.1255 9.88331C41.2381 10.0445 41.1869 10.275 41.0113 10.398C40.8357 10.5211 40.6021 10.4902 40.4895 10.329C39.8563 9.42203 39.1743 8.58007 38.4509 7.80431C37.711 7.01081 36.9214 6.27883 36.0903 5.61016ZM42.0096 40.1581C42.2636 39.6269 42.4216 39.0661 42.4871 38.4992C42.5519 37.9385 42.5259 37.3715 42.4124 36.8213C42.1812 36.9183 41.9175 37.0398 41.6153 37.1908C41.44 37.2789 41.2266 37.208 41.1386 37.0324C41.0507 36.8568 41.1214 36.643 41.2967 36.5548C42.282 36.0625 42.9159 35.8562 43.3604 35.791C43.8575 35.7181 44.1254 35.8102 44.364 35.8975C44.5136 35.9523 44.6519 36.0269 44.79 36.1014C44.9782 36.203 45.1659 36.3043 45.2215 36.2944C45.2291 36.2909 45.2369 36.2877 45.2448 36.2848C45.3438 36.2371 45.4169 36.1542 45.4557 36.0572C45.4968 35.9546 45.4994 35.8372 45.4535 35.7299L44.4915 33.4758C44.4875 33.4674 44.4837 33.4588 44.4803 33.45C44.4332 33.3477 44.3491 33.2722 44.2503 33.2325C44.1514 33.1928 44.0387 33.189 43.9346 33.2302C43.9298 33.2324 43.9249 33.2346 43.92 33.2366C43.8738 33.2656 43.8164 33.4747 43.7588 33.6842C43.717 33.8362 43.6752 33.9885 43.6116 34.134C43.5098 34.3671 43.3912 34.6248 42.9951 34.9346C42.6412 35.2112 42.0547 35.5277 41.0187 35.9012C40.834 35.9678 40.6304 35.8718 40.5639 35.6868C40.4974 35.5017 40.5933 35.2977 40.778 35.2311C41.0975 35.1159 41.3685 35.0083 41.5991 34.9073C41.4696 34.7186 41.3264 34.5366 41.1696 34.3627C40.9448 34.1134 40.6936 33.8826 40.4168 33.6747C40.1516 33.4756 39.8755 33.306 39.592 33.1654C39.3739 33.0573 39.1483 32.9651 38.917 32.8888C38.8852 33.1383 38.8583 33.4284 38.8377 33.767C38.8257 33.963 38.6573 34.1121 38.4618 34.1001C38.2662 34.0881 38.1173 33.9194 38.1293 33.7235C38.1964 32.6227 38.335 31.9696 38.5009 31.5513C38.6872 31.0815 38.8998 30.896 39.0936 30.7334C39.2084 30.6371 39.3459 30.552 39.4832 30.4671C39.6634 30.3557 39.8432 30.2444 39.8661 30.1905C39.867 30.1812 39.8682 30.1719 39.8699 30.1626L39.8703 30.1627C39.8782 30.0535 39.843 29.9489 39.7785 29.8666C39.7149 29.7855 39.6233 29.727 39.5171 29.7082C39.5029 29.7074 39.4886 29.7058 39.4743 29.7033L39.4744 29.7024L37.0802 29.4143C37.0632 29.4138 37.0461 29.412 37.0289 29.409L37.0289 29.4086C36.9199 29.4006 36.8155 29.4359 36.7334 29.5005C36.6525 29.5642 36.5941 29.656 36.5753 29.7624C36.5747 29.7729 36.5737 29.7834 36.5721 29.7939C36.5815 29.8516 36.7301 30.0025 36.879 30.1538C36.989 30.2654 37.0991 30.3772 37.1936 30.506C37.3448 30.7116 37.5088 30.9441 37.5781 31.44C37.64 31.8828 37.6198 32.5494 37.4241 33.6386C37.3895 33.8317 37.2052 33.9601 37.0125 33.9254C36.8198 33.8907 36.6916 33.7061 36.7262 33.513C36.7863 33.1787 36.8287 32.89 36.8565 32.6395C36.2921 32.684 35.736 32.8192 35.2116 33.0417C34.6921 33.2622 34.204 33.5681 33.7701 33.9559C33.9701 34.1086 34.2078 34.2773 34.4906 34.4647C34.6537 34.5736 34.6977 34.7944 34.589 34.9578C34.4803 35.1212 34.26 35.1654 34.0969 35.0564C33.1783 34.4474 32.6831 34.0008 32.4048 33.6481C32.0949 33.2555 32.0406 32.9764 31.9966 32.7252C31.9686 32.565 31.964 32.4094 31.9594 32.2539C31.9531 32.0391 31.9468 31.8248 31.9094 31.7817C31.9035 31.7774 31.8976 31.7728 31.8919 31.768C31.801 31.7051 31.6925 31.6827 31.5891 31.6975C31.4803 31.7131 31.3773 31.7702 31.3064 31.8648C30.8302 32.5278 30.3192 33.1845 29.8292 33.8395C29.7592 33.9331 29.7338 34.0474 29.7494 34.1561C29.765 34.2652 29.8219 34.3684 29.9165 34.4394C29.9557 34.4689 30.1705 34.4128 30.3857 34.3566C30.5354 34.3175 30.6854 34.2783 30.8483 34.2601C31.101 34.2319 31.3833 34.2059 31.8482 34.3944C32.2636 34.5628 32.8304 34.9136 33.6724 35.6267C33.8219 35.7536 33.8403 35.9778 33.7137 36.1276C33.587 36.2773 33.3632 36.2958 33.2137 36.1689C32.9541 35.949 32.7253 35.7675 32.5224 35.6178C32.2717 36.1409 32.1133 36.6938 32.0453 37.2536C31.976 37.8236 32.0011 38.3991 32.1184 38.9558C32.35 38.8586 32.6142 38.7369 32.9172 38.5855C33.0925 38.4974 33.3059 38.5683 33.3939 38.7439C33.4819 38.9195 33.4111 39.1333 33.2358 39.2214C32.2505 39.7138 31.6166 39.9201 31.1721 39.9853C30.675 40.0582 30.4071 39.9661 30.1685 39.8787C30.019 39.824 29.8806 39.7494 29.7425 39.6749C29.5468 39.5692 29.3515 39.4638 29.3049 39.4836C29.1972 39.5298 29.1179 39.6165 29.0768 39.719C29.0358 39.8217 29.0332 39.9391 29.079 40.0464C29.4017 40.8025 29.7283 41.5578 30.0473 42.3153C30.0933 42.4231 30.1799 42.5026 30.2822 42.5437C30.3845 42.5848 30.5014 42.5875 30.6084 42.5418L30.609 42.5416C30.6557 42.5215 30.7147 42.307 30.7737 42.0921C30.8155 41.9401 30.8573 41.7878 30.9209 41.6423C31.0227 41.4092 31.1413 41.1515 31.5375 40.8417C31.8913 40.5651 32.4779 40.2486 33.5138 39.8751C33.6985 39.8085 33.9021 39.9045 33.9686 40.0895C34.0351 40.2746 33.9393 40.4786 33.7546 40.5452C33.4368 40.6598 33.1669 40.7668 32.9371 40.8673C33.068 41.0541 33.2106 41.2357 33.3662 41.4101C33.5898 41.6606 33.8386 41.8935 34.1157 42.1016C34.3828 42.3021 34.6633 42.4735 34.9532 42.6163C35.169 42.7227 35.3903 42.813 35.6155 42.8876C35.6473 42.638 35.6742 42.3479 35.6949 42.0092C35.7069 41.8133 35.8752 41.6641 36.0708 41.6762C36.2664 41.6882 36.4152 41.8568 36.4032 42.0528C36.3362 43.1536 36.1975 43.8066 36.0317 44.2249C35.8453 44.6947 35.6328 44.8803 35.4389 45.0429C35.3241 45.1392 35.1867 45.2242 35.0494 45.3092C34.8597 45.4265 34.6704 45.5436 34.6642 45.5938C34.6502 45.7101 34.6857 45.8225 34.754 45.9096C34.8222 45.9966 34.9225 46.0576 35.0386 46.0715L37.4524 46.362C37.4693 46.3625 37.4865 46.3643 37.5037 46.3673L37.5036 46.3677C37.6126 46.3756 37.717 46.3404 37.7991 46.2758C37.88 46.2121 37.9384 46.1204 37.9572 46.0141C37.9578 46.0034 37.9588 45.9928 37.9604 45.9822C37.9509 45.9245 37.8023 45.7737 37.6535 45.6225C37.5436 45.5108 37.4335 45.3991 37.3389 45.2703C37.1878 45.0647 37.0237 44.8322 36.9544 44.3363C36.8925 43.8934 36.9127 43.2269 37.1084 42.1377C37.1431 41.9446 37.3274 41.8162 37.5201 41.8509C37.7128 41.8856 37.8409 42.0702 37.8063 42.2633C37.7462 42.5977 37.7038 42.8866 37.676 43.1372C38.2597 43.0913 38.8339 42.9487 39.3726 42.7132C39.8723 42.4948 40.3424 42.1962 40.7625 41.8204C40.5625 41.6677 40.3248 41.4991 40.042 41.3115C39.8789 41.2026 39.8348 40.9819 39.9435 40.8185C40.0522 40.6551 40.2725 40.6109 40.4356 40.7198C41.3543 41.3289 41.8495 41.7755 42.1278 42.1282C42.4376 42.5208 42.492 42.7999 42.5359 43.0511C42.5639 43.2113 42.5685 43.367 42.5731 43.5225C42.5794 43.7372 42.5858 43.9515 42.6231 43.9946C42.6291 43.9989 42.6349 44.0035 42.6407 44.0083C42.7315 44.0712 42.84 44.0936 42.9434 44.0788C43.047 44.0639 43.1452 44.0116 43.2155 43.9251C43.2228 43.9143 43.2308 43.9037 43.2395 43.8936L44.7033 41.9368C44.7733 41.8432 44.7987 41.7289 44.7832 41.6202C44.7683 41.5165 44.7161 41.4181 44.6298 41.3476C44.6234 41.3433 44.6172 41.3388 44.6111 41.334C44.5614 41.3114 44.3543 41.3655 44.1468 41.4197C43.9971 41.4588 43.8471 41.498 43.6843 41.5162C43.4316 41.5444 43.1493 41.5704 42.6843 41.3819C42.2689 41.2135 41.7021 40.8627 40.8601 40.1496C40.7107 40.0227 40.6922 39.7985 40.8189 39.6487C40.9455 39.499 41.1694 39.4805 41.3188 39.6074C41.5782 39.8271 41.8069 40.0085 42.0096 40.1581ZM43.1909 38.58C43.1129 39.2551 42.9191 39.9231 42.605 40.5529C42.7344 40.6269 42.8485 40.6824 42.9501 40.7236C43.2532 40.8465 43.439 40.8293 43.6053 40.8108C43.7005 40.8001 43.834 40.7653 43.9673 40.7305C44.3478 40.6311 44.7275 40.532 45.0434 40.7691L45.0436 40.7693C45.2934 40.9569 45.4439 41.23 45.4852 41.5187C45.5266 41.808 45.4581 42.1133 45.27 42.3649C44.7789 43.0214 44.2926 43.6911 43.7927 44.3397C43.6055 44.5899 43.3329 44.7408 43.0447 44.7821C42.765 44.8223 42.4702 44.7592 42.2238 44.5838C42.207 44.5732 42.191 44.561 42.1759 44.5474C41.8857 44.31 41.8744 43.9277 41.8631 43.5446C41.8591 43.4071 41.855 43.2695 41.8382 43.1733C41.8093 43.0085 41.7737 42.8254 41.5696 42.5669C41.5016 42.4806 41.4163 42.3865 41.3088 42.2826C40.8141 42.7404 40.2543 43.1019 39.6568 43.363C39.0133 43.6444 38.3272 43.809 37.6328 43.8521C37.6337 44.0013 37.6428 44.1281 37.658 44.2371C37.7036 44.5633 37.8109 44.7154 37.9097 44.8499C37.9691 44.9307 38.0647 45.0278 38.1602 45.1248C38.4358 45.4046 38.7107 45.6839 38.6638 46.0752L38.6613 46.0948L38.6623 46.095C38.6612 46.1012 38.66 46.1073 38.6586 46.1133C38.6131 46.409 38.4564 46.6623 38.237 46.8349C38.0084 47.0148 37.7109 47.1077 37.3996 47.0703L37.3801 47.0679L37.3799 47.0688L37.3684 47.0665L34.9542 46.776C34.6428 46.7385 34.3756 46.5775 34.1959 46.3483C34.0239 46.1289 33.9315 45.846 33.9571 45.5483C33.9573 45.52 33.961 45.4919 33.9678 45.4646C34.0339 45.1021 34.3542 44.9039 34.6752 44.7053C34.7869 44.6363 34.8986 44.5672 34.9829 44.4965C35.1124 44.3879 35.2543 44.2642 35.3739 43.9626C35.4144 43.8605 35.4531 43.7394 35.4891 43.5942C35.2008 43.504 34.9166 43.3908 34.6392 43.2541C34.311 43.0925 33.9926 42.8977 33.6884 42.6693C33.3715 42.4314 33.0887 42.167 32.8358 41.8836C32.6392 41.6633 32.4597 41.4298 32.2956 41.187C32.1658 41.2629 32.06 41.3345 31.9731 41.4025C31.7161 41.6034 31.6379 41.7734 31.5707 41.9273C31.5301 42.0201 31.4942 42.1508 31.4584 42.2813C31.3572 42.6496 31.2562 43.0172 30.9203 43.1801C30.9004 43.1912 30.8797 43.2001 30.8586 43.207C30.5785 43.3178 30.2787 43.3091 30.018 43.2043C29.7566 43.0993 29.5334 42.8976 29.4076 42.6229C29.3986 42.606 29.391 42.5885 29.3849 42.5708L28.4272 40.3266C28.3037 40.0374 28.3092 39.7248 28.4175 39.4544C28.5223 39.1924 28.7236 38.9688 28.9977 38.8428C29.0179 38.832 29.0386 38.8234 29.0598 38.8168C29.4089 38.6877 29.7433 38.8681 30.0784 39.0489C30.1978 39.1134 30.3174 39.1779 30.4118 39.2124C30.5692 39.27 30.7458 39.3309 31.0686 39.2835C31.1774 39.2676 31.3018 39.2405 31.4459 39.199C31.2941 38.5345 31.258 37.8464 31.3406 37.1667C31.4212 36.5026 31.6158 35.8447 31.9269 35.223C31.7977 35.1493 31.6839 35.0938 31.5824 35.0527C31.2793 34.9298 31.0935 34.9469 30.9272 34.9655C30.832 34.9762 30.6985 35.011 30.5652 35.0458C30.1848 35.1452 29.8051 35.2444 29.4892 35.0072C29.2393 34.8195 29.0886 34.5464 29.0473 34.2575C29.006 33.9683 29.0744 33.6629 29.2625 33.4114L30.7396 31.4368C30.9269 31.1864 31.1995 31.0355 31.4878 30.9942C31.7766 30.9527 32.0813 31.0213 32.3323 31.2098C32.6463 31.4455 32.6578 31.8382 32.6694 32.2318C32.6735 32.3692 32.6775 32.5068 32.6944 32.603C32.7232 32.7678 32.7589 32.9509 32.9629 33.2094C33.0309 33.2957 33.1162 33.3898 33.2236 33.4937C33.7352 33.02 34.3155 32.6497 34.9342 32.3871C35.5601 32.1215 36.2256 31.9656 36.8998 31.9237C36.8988 31.7748 36.8897 31.6481 36.8745 31.5392C36.8289 31.213 36.7216 31.0609 36.6228 30.9264C36.5634 30.8456 36.4678 30.7485 36.3723 30.6515C36.0968 30.3717 35.8218 30.0924 35.8687 29.701L35.8712 29.6815L35.8702 29.6813C35.8713 29.6751 35.8726 29.669 35.8739 29.6629C35.9194 29.3673 36.0762 29.114 36.2956 28.9413C36.5241 28.7615 36.8216 28.6686 37.133 28.706L37.1525 28.7084L37.1526 28.7075L37.1642 28.7098C37.9745 28.8073 38.7889 28.8976 39.5979 29.0028L39.598 29.0018C39.6042 29.0029 39.6103 29.0042 39.6164 29.0056C39.9115 29.0511 40.1643 29.2082 40.3366 29.4279C40.5087 29.6474 40.601 29.9303 40.5755 30.228C40.5752 30.2563 40.5716 30.2844 40.5647 30.3117C40.4986 30.6742 40.1783 30.8724 39.8573 31.071C39.7457 31.14 39.6339 31.2091 39.5497 31.2798C39.4202 31.3884 39.2783 31.5121 39.1586 31.8137C39.1182 31.9158 39.0795 32.0368 39.0434 32.1819C39.3345 32.2732 39.6234 32.389 39.9076 32.5299C40.2326 32.6912 40.5463 32.8833 40.8441 33.1069C41.1598 33.344 41.4448 33.6056 41.6984 33.8869C41.8976 34.1078 42.0783 34.3421 42.2403 34.5873C42.3686 34.5121 42.4733 34.4412 42.5595 34.3738C42.8165 34.1729 42.8946 34.0029 42.9618 33.849C43.0024 33.7562 43.0383 33.6255 43.0742 33.4949C43.1754 33.1266 43.2764 32.759 43.6124 32.5961C43.6323 32.5851 43.6529 32.5762 43.6739 32.5693C43.9541 32.4585 44.2539 32.4672 44.5145 32.5719C44.7846 32.6805 45.0138 32.8922 45.137 33.1808L46.1054 35.4497C46.2288 35.7389 46.2233 36.0514 46.1151 36.3219C46.0068 36.5925 45.7955 36.8222 45.5073 36.9457L45.4981 36.9495C45.1399 37.0973 44.7973 36.9126 44.4541 36.7273C44.3347 36.6629 44.2151 36.5984 44.1208 36.5638C43.9633 36.5062 43.7867 36.4454 43.464 36.4928C43.3548 36.5088 43.23 36.536 43.0853 36.5777C43.2317 37.2318 43.2684 37.9093 43.1909 38.58Z" fill="url(#paint0_linear_19_1103)"/>
<path d="M26.0143 26.2295C25.6436 26.539 25.2227 26.8059 24.7516 27.0303C24.2805 27.2547 23.7862 27.4404 23.2688 27.5874C22.759 27.7344 22.2377 27.8427 21.7048 27.9124C21.1719 27.9898 20.6622 28.0284 20.1757 28.0284C19.0018 28.0284 17.9167 27.835 16.9204 27.4481C15.9241 27.0535 15.0591 26.4964 14.3254 25.7768C13.5917 25.0572 13.0164 24.1906 12.5993 23.177C12.19 22.1634 11.9853 21.0298 11.9853 19.7764C11.9853 18.7937 12.1089 17.8845 12.356 17.0489C12.6109 16.2132 12.9584 15.4549 13.3987 14.774C13.8466 14.0931 14.3756 13.4896 14.9857 12.9635C15.5959 12.4373 16.2601 11.9963 16.9783 11.6403C17.6965 11.2844 18.4534 11.0175 19.2489 10.8395C20.0521 10.6538 20.8669 10.561 21.6932 10.561C21.9558 10.561 22.2609 10.5726 22.6084 10.5958C22.9637 10.6112 23.3344 10.6422 23.7206 10.6886C24.1144 10.735 24.516 10.7969 24.9254 10.8743C25.3347 10.9517 25.7363 11.0446 26.1302 11.1529L25.5278 13.892L25.2961 13.9848C24.5855 13.6444 23.9098 13.4122 23.2688 13.2884C22.6277 13.1569 22.0601 13.0911 21.5658 13.0911C20.7626 13.0911 20.0328 13.2381 19.3763 13.5322C18.7199 13.8185 18.1561 14.2247 17.685 14.7508C17.2139 15.277 16.847 15.9076 16.5844 16.6427C16.3296 17.3777 16.2021 18.194 16.2021 19.0916C16.2021 20.0046 16.3334 20.8441 16.596 21.6102C16.8663 22.3684 17.2563 23.0261 17.7661 23.5832C18.2758 24.1326 18.8975 24.562 19.6312 24.8715C20.3726 25.1733 21.2144 25.3242 22.1566 25.3242C22.8826 25.3242 23.5584 25.2391 24.1839 25.0688C24.8172 24.8986 25.4274 24.6665 26.0143 24.3725V26.2295Z" fill="url(#paint1_linear_19_1103)"/>
<path d="M33.4841 26.4175C33.915 26.4175 34.2996 26.3177 34.6379 26.118C34.9762 25.9184 35.2612 25.6515 35.4929 25.3172C35.7245 24.9783 35.9006 24.5883 36.0211 24.1473C36.1416 23.7016 36.2018 23.2374 36.2018 22.7545C36.2018 22.2346 36.1346 21.7471 36.0003 21.2921C35.8659 20.8325 35.6736 20.431 35.4233 20.0874C35.1778 19.7439 34.8789 19.4723 34.5267 19.2726C34.1792 19.073 33.7922 18.9732 33.3659 18.9732C32.935 18.9732 32.5504 19.0753 32.2121 19.2796C31.8785 19.4792 31.5958 19.7485 31.3641 20.0874C31.137 20.4217 30.9633 20.8116 30.8428 21.2573C30.7223 21.6984 30.6621 22.1603 30.6621 22.6431C30.6621 23.1631 30.7293 23.6529 30.8636 24.1125C30.998 24.5674 31.188 24.9667 31.4336 25.3102C31.6792 25.6492 31.9758 25.9184 32.3233 26.118C32.6708 26.3177 33.0578 26.4175 33.4841 26.4175ZM33.2478 27.9356C32.5202 27.9356 31.8437 27.8242 31.2181 27.6013C30.5972 27.3738 30.0573 27.0466 29.5986 26.6194C29.1398 26.1877 28.7784 25.6608 28.5143 25.0387C28.2548 24.4166 28.125 23.7086 28.125 22.9147C28.125 22.1023 28.2617 21.3618 28.5351 20.6933C28.8132 20.0201 29.1954 19.4444 29.682 18.9662C30.1732 18.4881 30.7524 18.1167 31.4197 17.852C32.0916 17.5874 32.8238 17.4551 33.6161 17.4551C34.339 17.4551 35.0109 17.5665 35.6319 17.7894C36.2574 18.0122 36.7996 18.3395 37.2584 18.7713C37.7171 19.1984 38.0762 19.723 38.3357 20.3451C38.5999 20.9672 38.7319 21.6752 38.7319 22.469C38.7319 23.0122 38.6694 23.5252 38.5442 24.008C38.4191 24.4862 38.2407 24.9296 38.009 25.3381C37.782 25.742 37.5039 26.1041 37.1749 26.4245C36.8459 26.7448 36.4776 27.0187 36.0698 27.2462C35.6666 27.469 35.2264 27.6408 34.7491 27.7615C34.2765 27.8776 33.776 27.9356 33.2478 27.9356Z" fill="url(#paint2_linear_19_1103)"/>
<path d="M47.0103 17.5944H49.0886L45.7592 27.7963H42.9371L39.6216 17.5944H42.2351L44.2091 24.4537L44.5567 25.9231H44.6957L45.0432 24.4537L47.0103 17.5944Z" fill="url(#paint3_linear_19_1103)"/>
<path d="M53.1409 27.7963H50.6873V17.5944H53.1409V27.7963Z" fill="url(#paint4_linear_19_1103)"/>
<path d="M55.6779 17.5944H59.6677C60.562 17.5944 61.3497 17.7081 62.0309 17.9356C62.7167 18.1631 63.2913 18.4857 63.7547 18.9036C64.2227 19.3168 64.5749 19.8158 64.8112 20.4008C65.0522 20.9857 65.1727 21.6334 65.1727 22.3437C65.1727 22.7708 65.1263 23.2025 65.0337 23.6389C64.9456 24.0753 64.8043 24.4955 64.6097 24.8994C64.415 25.3033 64.1648 25.684 63.859 26.0414C63.5531 26.3943 63.1848 26.7007 62.7538 26.9607C62.3229 27.2206 61.8247 27.4272 61.2594 27.5804C60.6987 27.729 60.0662 27.8033 59.3618 27.8033L55.6779 27.7963V17.5944ZM58.1315 26.2782H59.626C60.1403 26.2782 60.5852 26.1854 60.9605 25.9997C61.3405 25.8093 61.6533 25.5493 61.8989 25.2197C62.1491 24.8855 62.3344 24.4932 62.4549 24.0428C62.5754 23.5925 62.6356 23.1027 62.6356 22.5735C62.6356 21.4129 62.3599 20.547 61.8085 19.976C61.2617 19.4003 60.4809 19.1125 59.4661 19.1125H58.1315V26.2782Z" fill="url(#paint5_linear_19_1103)"/>
<path d="M53.3934 40.727H50.9398V32.0432H47.7772L48.0483 30.5251H56.5908L56.3197 32.0432H53.3934V40.727Z" fill="url(#paint6_linear_19_1103)"/>
<path d="M60.7265 36.9527V40.727H58.2729V30.5251H61.929C62.5916 30.5251 63.1685 30.5971 63.6597 30.741C64.1509 30.8849 64.5587 31.0799 64.8831 31.3259C65.2121 31.5673 65.4577 31.8482 65.6198 32.1686C65.782 32.4889 65.8631 32.8255 65.8631 33.1783C65.8631 33.4986 65.8029 33.8027 65.6824 34.0906C65.5619 34.3738 65.4067 34.6361 65.2167 34.8775C65.0267 35.1142 64.8136 35.3324 64.5772 35.5321C64.3455 35.727 64.1185 35.8988 63.896 36.0474L66.7459 40.727H63.896L62.0193 36.9527H60.7265ZM60.7265 35.539H62.485C62.6148 35.4694 62.7376 35.3765 62.8534 35.2605C62.9739 35.1444 63.0782 35.0121 63.1662 34.8635C63.2589 34.7103 63.333 34.5409 63.3886 34.3552C63.4442 34.1695 63.4721 33.9675 63.4721 33.7493C63.4721 33.5079 63.435 33.2828 63.3608 33.0738C63.2867 32.8649 63.1755 32.6839 63.0272 32.5307C62.8789 32.3775 62.6959 32.2591 62.4781 32.1755C62.2603 32.0873 62.0054 32.0432 61.7135 32.0432H60.7265V35.539Z" fill="url(#paint7_linear_19_1103)"/>
<path d="M73.7453 38.3663H70.2838L69.6235 40.727H67.573L70.8121 30.5251H73.7731L77.0052 40.727H74.4126L73.7453 38.3663ZM73.363 36.9527L72.4247 33.5961L72.0771 32.0641H71.9381L71.5975 33.5961L70.6592 36.9527H73.363Z" fill="url(#paint8_linear_19_1103)"/>
<path d="M86.4166 39.7869C86.1941 39.9726 85.9416 40.1328 85.6589 40.2674C85.3763 40.4021 85.0797 40.5135 84.7692 40.6017C84.4634 40.6899 84.1506 40.7549 83.8309 40.7967C83.5111 40.8431 83.2053 40.8663 82.9134 40.8663C82.209 40.8663 81.558 40.7503 80.9602 40.5181C80.3624 40.2814 79.8435 39.9471 79.4032 39.5153C78.963 39.0836 78.6178 38.5636 78.3676 37.9555C78.122 37.3473 77.9992 36.6672 77.9992 35.9151C77.9992 35.3255 78.0733 34.78 78.2216 34.2786C78.3745 33.7772 78.583 33.3222 78.8472 32.9137C79.1159 32.5051 79.4334 32.143 79.7994 31.8273C80.1655 31.5116 80.564 31.247 80.995 31.0335C81.4259 30.8199 81.88 30.6597 82.3573 30.553C82.8392 30.4415 83.3281 30.3858 83.8239 30.3858C83.9815 30.3858 84.1645 30.3928 84.373 30.4067C84.5862 30.416 84.8086 30.4346 85.0403 30.4624C85.2766 30.4903 85.5176 30.5274 85.7632 30.5738C86.0088 30.6203 86.2497 30.676 86.4861 30.741L86.1246 32.3844L85.9856 32.4401C85.5593 32.2359 85.1538 32.0966 84.7692 32.0223C84.3846 31.9434 84.044 31.9039 83.7475 31.9039C83.2655 31.9039 82.8277 31.9921 82.4338 32.1686C82.0399 32.3403 81.7016 32.5841 81.419 32.8997C81.1363 33.2154 80.9162 33.5938 80.7586 34.0348C80.6057 34.4759 80.5293 34.9657 80.5293 35.5042C80.5293 36.052 80.608 36.5557 80.7656 37.0153C80.9278 37.4703 81.1618 37.8649 81.4676 38.1992C81.7735 38.5288 82.1465 38.7865 82.5867 38.9722C83.0315 39.1532 83.5366 39.2438 84.102 39.2438C84.5375 39.2438 84.943 39.1927 85.3183 39.0906C85.6983 38.9884 86.0644 38.8491 86.4166 38.6727V39.7869Z" fill="url(#paint9_linear_19_1103)"/>
<path d="M90.9346 40.727H88.4809V30.5251H90.9346V40.727ZM95.0703 40.727L91.5532 35.5738L95.4039 30.5251H97.7255L93.9095 35.0307L98.0452 40.727H95.0703Z" fill="url(#paint10_linear_19_1103)"/>
<path d="M99.6995 40.727V30.5251H106.344L106.073 32.0432H102.153V34.7521H105.573L105.323 36.1658H102.153V39.2089H106.414L106.143 40.727H99.6995Z" fill="url(#paint11_linear_19_1103)"/>
<path d="M110.981 36.9527V40.727H108.527V30.5251H112.183C112.846 30.5251 113.423 30.5971 113.914 30.741C114.405 30.8849 114.813 31.0799 115.137 31.3259C115.466 31.5673 115.712 31.8482 115.874 32.1686C116.036 32.4889 116.117 32.8255 116.117 33.1783C116.117 33.4986 116.057 33.8027 115.937 34.0906C115.816 34.3738 115.661 34.6361 115.471 34.8775C115.281 35.1142 115.068 35.3324 114.831 35.5321C114.6 35.727 114.373 35.8988 114.15 36.0474L117 40.727H114.15L112.273 36.9527H110.981ZM110.981 35.539H112.739C112.869 35.4694 112.992 35.3765 113.108 35.2605C113.228 35.1444 113.332 35.0121 113.42 34.8635C113.513 34.7103 113.587 34.5409 113.643 34.3552C113.698 34.1695 113.726 33.9675 113.726 33.7493C113.726 33.5079 113.689 33.2828 113.615 33.0738C113.541 32.8649 113.43 32.6839 113.281 32.5307C113.133 32.3775 112.95 32.2591 112.732 32.1755C112.514 32.0873 112.26 32.0432 111.968 32.0432H110.981V35.539Z" fill="url(#paint12_linear_19_1103)"/>
<defs>
<linearGradient id="paint0_linear_19_1103" x1="0.058896" y1="0.0332864" x2="117.047" y2="50.8355" gradientUnits="userSpaceOnUse">
<stop stop-color="#0098EE"/>
<stop offset="1" stop-color="#01E5BB"/>
</linearGradient>
<linearGradient id="paint1_linear_19_1103" x1="0.058896" y1="0.0332864" x2="117.047" y2="50.8355" gradientUnits="userSpaceOnUse">
<stop stop-color="#0098EE"/>
<stop offset="1" stop-color="#01E5BB"/>
</linearGradient>
<linearGradient id="paint2_linear_19_1103" x1="0.058896" y1="0.0332864" x2="117.047" y2="50.8355" gradientUnits="userSpaceOnUse">
<stop stop-color="#0098EE"/>
<stop offset="1" stop-color="#01E5BB"/>
</linearGradient>
<linearGradient id="paint3_linear_19_1103" x1="0.058896" y1="0.0332864" x2="117.047" y2="50.8355" gradientUnits="userSpaceOnUse">
<stop stop-color="#0098EE"/>
<stop offset="1" stop-color="#01E5BB"/>
</linearGradient>
<linearGradient id="paint4_linear_19_1103" x1="0.058896" y1="0.0332864" x2="117.047" y2="50.8355" gradientUnits="userSpaceOnUse">
<stop stop-color="#0098EE"/>
<stop offset="1" stop-color="#01E5BB"/>
</linearGradient>
<linearGradient id="paint5_linear_19_1103" x1="0.058896" y1="0.0332864" x2="117.047" y2="50.8355" gradientUnits="userSpaceOnUse">
<stop stop-color="#0098EE"/>
<stop offset="1" stop-color="#01E5BB"/>
</linearGradient>
<linearGradient id="paint6_linear_19_1103" x1="0.058896" y1="0.0332864" x2="117.047" y2="50.8355" gradientUnits="userSpaceOnUse">
<stop stop-color="#0098EE"/>
<stop offset="1" stop-color="#01E5BB"/>
</linearGradient>
<linearGradient id="paint7_linear_19_1103" x1="0.058896" y1="0.0332864" x2="117.047" y2="50.8355" gradientUnits="userSpaceOnUse">
<stop stop-color="#0098EE"/>
<stop offset="1" stop-color="#01E5BB"/>
</linearGradient>
<linearGradient id="paint8_linear_19_1103" x1="0.058896" y1="0.0332864" x2="117.047" y2="50.8355" gradientUnits="userSpaceOnUse">
<stop stop-color="#0098EE"/>
<stop offset="1" stop-color="#01E5BB"/>
</linearGradient>
<linearGradient id="paint9_linear_19_1103" x1="0.058896" y1="0.0332864" x2="117.047" y2="50.8355" gradientUnits="userSpaceOnUse">
<stop stop-color="#0098EE"/>
<stop offset="1" stop-color="#01E5BB"/>
</linearGradient>
<linearGradient id="paint10_linear_19_1103" x1="0.058896" y1="0.0332864" x2="117.047" y2="50.8355" gradientUnits="userSpaceOnUse">
<stop stop-color="#0098EE"/>
<stop offset="1" stop-color="#01E5BB"/>
</linearGradient>
<linearGradient id="paint11_linear_19_1103" x1="0.058896" y1="0.0332864" x2="117.047" y2="50.8355" gradientUnits="userSpaceOnUse">
<stop stop-color="#0098EE"/>
<stop offset="1" stop-color="#01E5BB"/>
</linearGradient>
<linearGradient id="paint12_linear_19_1103" x1="0.058896" y1="0.0332864" x2="117.047" y2="50.8355" gradientUnits="userSpaceOnUse">
<stop stop-color="#0098EE"/>
<stop offset="1" stop-color="#01E5BB"/>
</linearGradient>
</defs>
</svg>
