<svg width="24" height="24" viewBox="0 0 24 24" fill="none" xmlns="http://www.w3.org/2000/svg">
<path fill-rule="evenodd" clip-rule="evenodd" d="M12 6.62866C13.7697 3.5573 18.1553 3.19885 20.381 6.06759L20.6904 6.46631C22.5727 8.89249 22.3009 12.3524 20.0628 14.4548L13.0927 21.0026C12.9885 21.1005 12.8746 21.2075 12.7673 21.2902C12.6438 21.3853 12.4711 21.4954 12.2407 21.5406C12.0817 21.5718 11.9182 21.5718 11.7593 21.5406C11.5288 21.4954 11.3562 21.3853 11.2327 21.2902C11.1254 21.2075 11.0116 21.1006 10.9074 21.0027L3.93715 14.4548C1.69902 12.3524 1.42723 8.8925 3.30961 6.46632L3.61896 6.06759C5.84471 3.19885 10.2303 3.55729 12 6.62866ZM16.0083 11.0515C16.3128 10.7708 16.3322 10.2963 16.0515 9.99172C15.7708 9.68713 15.2963 9.66778 14.9917 9.9485L11.1316 13.506L9.51925 11.9588C9.22037 11.672 8.7456 11.6818 8.45881 11.9807C8.17202 12.2796 8.18182 12.7544 8.4807 13.0412L10.602 15.0767C10.888 15.3511 11.3381 15.3556 11.6296 15.087L16.0083 11.0515Z" fill="#F2F2F2"/>
</svg>
