<svg width="18" height="17" viewBox="0 0 18 17" fill="none" xmlns="http://www.w3.org/2000/svg">
<path d="M15.9375 7.4375C15.63 7.4375 15.375 7.67834 15.375 7.96875H14.22C14.1075 6.99834 13.7025 6.10584 13.08 5.38334L13.8975 4.61125L13.905 4.61834C14.1225 4.82375 14.4825 4.82375 14.7 4.61834C14.9175 4.41292 14.9175 4.07292 14.7 3.8675L13.905 3.11667C13.6875 2.91125 13.3275 2.91125 13.11 3.11667C12.8925 3.32208 12.8925 3.655 13.1025 3.86042L12.285 4.6325C11.52 4.05167 10.5825 3.66917 9.555 3.56292V2.47917H9.5625C9.87 2.47917 10.125 2.23833 10.125 1.94792C10.125 1.6575 9.87 1.41667 9.5625 1.41667H8.4375C8.13 1.41667 7.875 1.6575 7.875 1.94792C7.875 2.23833 8.1225 2.47208 8.43 2.47917V3.57709C7.4025 3.67625 6.465 4.06583 5.7 4.64667L4.8825 3.87458L4.89 3.8675C5.1075 3.66208 5.1075 3.32208 4.89 3.11667C4.6725 2.91125 4.3125 2.91125 4.095 3.11667L3.3 3.8675C3.0825 4.07292 3.0825 4.41292 3.3 4.61834C3.5175 4.82375 3.87 4.82375 4.0875 4.62542L4.905 5.3975C4.29 6.12 3.885 6.99834 3.78 7.96875H2.625C2.625 7.67834 2.37 7.4375 2.0625 7.4375C1.755 7.4375 1.5 7.67834 1.5 7.96875V9.03125C1.5 9.32167 1.755 9.5625 2.0625 9.5625C2.37 9.5625 2.625 9.32167 2.625 9.03125H3.78C3.8925 10.0017 4.2975 10.88 4.905 11.6025L4.0875 12.3746C3.87 12.1692 3.5175 12.1763 3.3 12.3817C3.0825 12.5871 3.0825 12.9271 3.3 13.1325L4.095 13.8833C4.3125 14.0888 4.6725 14.0888 4.89 13.8833C5.1075 13.6779 5.1075 13.3379 4.89 13.1325L4.8825 13.1254L5.7 12.3533C6.465 12.9342 7.395 13.3167 8.4225 13.4229V14.5208C8.115 14.5279 7.8675 14.7617 7.8675 15.0521C7.8675 15.3425 8.1225 15.5833 8.43 15.5833H9.555C9.8625 15.5833 10.1175 15.3425 10.1175 15.0521C10.1175 14.7617 9.8625 14.5208 9.555 14.5208H9.5475V13.43C10.575 13.3308 11.5125 12.9413 12.2775 12.3604L13.095 13.1325C12.8775 13.3379 12.885 13.6708 13.1025 13.8763C13.32 14.0817 13.68 14.0817 13.8975 13.8763L14.6925 13.1254C14.91 12.92 14.91 12.58 14.6925 12.3746C14.475 12.1692 14.115 12.1692 13.8975 12.3746L13.89 12.3817L13.0725 11.6096C13.6875 10.8871 14.1 10.0017 14.2125 9.02417H15.3675C15.3675 9.31459 15.6225 9.55542 15.93 9.55542C16.2375 9.55542 16.4925 9.31459 16.4925 9.02417V7.96167C16.5 7.67834 16.245 7.4375 15.9375 7.4375ZM10.3125 5.66667C10.725 5.66667 11.0625 5.98542 11.0625 6.375C11.0625 6.76459 10.725 7.08334 10.3125 7.08334C9.9 7.08334 9.5625 6.76459 9.5625 6.375C9.5625 5.98542 9.9 5.66667 10.3125 5.66667ZM9 9.20834C8.5875 9.20834 8.25 8.88959 8.25 8.5C8.25 8.11042 8.5875 7.79167 9 7.79167C9.4125 7.79167 9.75 8.11042 9.75 8.5C9.75 8.88959 9.4125 9.20834 9 9.20834ZM7.6875 5.66667C8.1 5.66667 8.4375 5.98542 8.4375 6.375C8.4375 6.76459 8.1 7.08334 7.6875 7.08334C7.275 7.08334 6.9375 6.76459 6.9375 6.375C6.9375 5.98542 7.275 5.66667 7.6875 5.66667ZM6.375 9.20834C5.9625 9.20834 5.625 8.88959 5.625 8.5C5.625 8.11042 5.9625 7.79167 6.375 7.79167C6.7875 7.79167 7.125 8.11042 7.125 8.5C7.125 8.88959 6.7875 9.20834 6.375 9.20834ZM7.6875 11.3333C7.275 11.3333 6.9375 11.0146 6.9375 10.625C6.9375 10.2354 7.275 9.91667 7.6875 9.91667C8.1 9.91667 8.4375 10.2354 8.4375 10.625C8.4375 11.0146 8.1 11.3333 7.6875 11.3333ZM10.3125 11.3333C9.9 11.3333 9.5625 11.0146 9.5625 10.625C9.5625 10.2354 9.9 9.91667 10.3125 9.91667C10.725 9.91667 11.0625 10.2354 11.0625 10.625C11.0625 11.0146 10.725 11.3333 10.3125 11.3333ZM10.875 8.5C10.875 8.11042 11.2125 7.79167 11.625 7.79167C12.0375 7.79167 12.375 8.11042 12.375 8.5C12.375 8.88959 12.0375 9.20834 11.625 9.20834C11.2125 9.20834 10.875 8.88959 10.875 8.5Z" fill="url(#paint0_linear_19_804)"/>
<defs>
<linearGradient id="paint0_linear_19_804" x1="8.99633" y1="1.41667" x2="8.99633" y2="15.5833" gradientUnits="userSpaceOnUse">
<stop stop-color="#0199EE"/>
<stop offset="1" stop-color="#01E5BB"/>
</linearGradient>
</defs>
</svg>
